<?xml version="1.0" encoding="UTF-8" ?>
<!DOCTYPE svg PUBLIC "-//W3C//DTD SVG 1.1//EN" "http://www.w3.org/Graphics/SVG/1.1/DTD/svg11.dtd">
<svg width="800pt" height="171pt" viewBox="0 0 800 171" version="1.1" xmlns="http://www.w3.org/2000/svg">
<g id="#002f4eff">
<path fill="#002f4e" opacity="1.00" d=" M 412.37 9.44 C 430.23 1.19 450.72 -0.49 469.97 2.94 C 494.29 7.25 516.78 22.79 527.97 45.01 C 536.94 61.92 539.37 81.84 536.54 100.65 C 534.24 116.71 527.12 132.08 516.17 144.09 C 504.53 156.74 488.73 165.35 471.91 168.79 C 467.19 169.78 462.39 170.29 457.63 171.00 L 446.24 171.00 C 437.69 170.11 429.08 168.94 420.93 166.09 C 408.96 161.92 397.60 155.42 388.86 146.13 C 383.03 140.66 378.52 133.96 374.76 126.94 C 380.79 114.19 383.25 100.03 383.46 86.00 C 383.18 71.98 380.80 57.82 374.74 45.07 C 382.93 29.48 396.31 16.71 412.37 9.44 M 446.23 44.37 C 436.93 45.36 427.98 49.84 421.80 56.90 C 413.85 65.78 410.76 78.20 411.61 89.91 C 412.35 97.93 414.72 105.99 419.55 112.53 C 425.70 121.04 435.63 126.62 446.05 127.71 C 460.21 129.75 475.63 123.83 483.81 111.87 C 492.64 98.74 493.61 81.03 487.38 66.63 C 481.80 53.59 468.21 44.52 454.05 44.24 C 451.44 44.21 448.83 44.17 446.23 44.37 Z" />
<path fill="#002f4e" opacity="1.00" d=" M 218.84 4.42 C 243.89 4.27 268.94 4.45 293.98 4.33 C 314.69 4.73 335.95 11.35 351.26 25.72 C 361.50 35.09 368.52 47.64 372.24 60.94 C 376.33 76.56 376.51 93.17 372.80 108.88 C 368.87 125.10 359.85 140.34 346.47 150.51 C 330.54 162.84 309.97 168.30 290.00 167.64 C 266.28 167.60 242.56 167.71 218.85 167.58 C 218.84 155.39 218.88 143.20 218.82 131.01 C 218.72 129.54 219.12 128.13 219.28 126.69 C 242.85 126.90 266.43 126.72 290.00 126.78 C 300.21 126.78 310.97 123.77 318.15 116.15 C 324.15 110.47 327.25 102.42 328.49 94.39 C 330.04 84.14 328.88 73.24 324.20 63.90 C 319.72 54.91 310.76 48.71 301.06 46.57 C 296.13 45.38 291.03 45.39 286.00 45.22 C 263.73 45.28 241.45 45.14 219.18 45.29 C 218.63 41.55 218.89 37.77 218.85 34.00 C 218.84 24.14 218.86 14.28 218.84 4.42 Z" />
<path fill="#002f4e" opacity="1.00" d=" M 593.41 4.38 C 611.52 4.40 629.64 4.27 647.75 4.45 C 628.22 31.05 608.44 57.47 588.92 84.08 C 610.23 111.93 631.55 139.79 653.02 167.52 C 634.68 167.75 616.34 167.63 598.00 167.58 C 582.79 146.85 567.63 126.09 552.30 105.46 C 548.98 105.46 545.67 105.45 542.36 105.48 C 543.67 99.39 543.77 93.16 544.30 86.98 C 544.04 79.81 543.46 72.64 542.21 65.57 C 545.67 65.53 549.13 65.54 552.60 65.54 C 566.15 45.12 579.95 24.86 593.41 4.38 Z" />
<path fill="#002f4e" opacity="1.00" d=" M 652.45 4.02 C 667.38 3.70 682.32 3.96 697.26 3.88 C 697.32 35.93 697.24 67.99 697.29 100.04 C 697.64 107.56 700.66 115.50 707.04 119.92 C 714.17 124.98 723.49 125.85 731.90 124.29 C 738.85 123.17 745.22 118.86 748.74 112.75 C 751.85 107.05 752.52 100.38 752.26 94.00 C 752.31 63.95 752.13 33.90 752.36 3.86 C 767.01 3.95 781.66 3.78 796.31 3.93 C 796.50 4.12 796.88 4.49 797.07 4.68 C 797.22 34.45 797.07 64.23 797.14 94.00 C 797.11 108.93 795.35 124.45 787.71 137.59 C 781.83 148.17 772.18 156.45 761.08 161.17 C 749.43 166.15 736.62 168.02 724.01 167.64 C 714.82 167.92 705.60 166.68 696.76 164.20 C 684.78 160.78 673.54 154.00 665.94 144.00 C 656.35 131.52 652.66 115.51 652.43 100.00 C 652.45 68.01 652.42 36.01 652.45 4.02 Z" />
<path fill="#002f4e" opacity="1.00" d=" M 150.15 55.19 C 157.80 50.19 167.66 48.98 176.40 51.48 C 183.08 53.36 188.75 58.82 190.46 65.60 C 191.45 68.93 191.46 72.46 191.19 75.89 C 190.60 81.79 187.18 86.98 183.06 91.06 C 178.88 95.80 174.34 100.20 169.84 104.63 C 176.65 104.81 183.46 104.66 190.27 104.72 C 190.28 109.98 190.27 115.24 190.28 120.50 C 175.44 120.52 160.60 120.53 145.76 120.50 C 145.77 116.04 145.74 111.59 145.79 107.14 C 152.58 101.50 158.09 94.52 164.83 88.83 C 167.92 85.85 171.31 82.94 173.20 79.00 C 174.86 75.73 174.70 71.39 172.32 68.51 C 169.92 66.16 166.19 65.42 162.99 66.30 C 158.51 67.16 154.97 70.33 151.92 73.53 C 148.76 69.70 145.25 66.17 142.25 62.21 C 144.82 59.80 147.19 57.13 150.15 55.19 Z" />
<path fill="#002f4e" opacity="1.00" d=" M 72.41 51.80 C 77.97 51.80 83.54 51.81 89.10 51.79 C 99.37 64.84 109.55 77.95 119.72 91.07 C 119.83 77.98 119.73 64.90 119.78 51.81 C 125.69 51.80 131.60 51.81 137.52 51.80 C 137.59 74.70 137.54 97.61 137.54 120.52 C 131.90 120.42 126.24 120.69 120.60 120.42 C 110.16 107.49 100.15 94.17 89.81 81.15 C 89.74 94.27 89.81 107.39 89.78 120.52 C 84.01 120.51 78.24 120.51 72.47 120.51 C 72.36 97.61 72.48 74.71 72.41 51.80 Z" />
<path fill="#002f4e" opacity="1.00" d=" M 196.74 97.14 C 203.89 81.93 211.53 66.95 218.77 51.79 C 224.75 51.82 230.72 51.80 236.70 51.80 C 229.58 65.64 223.07 79.78 216.02 93.65 C 219.53 93.68 223.05 93.68 226.56 93.68 C 226.56 91.38 226.44 89.06 226.69 86.77 C 228.27 82.97 230.10 79.28 231.92 75.59 C 235.49 75.57 239.05 75.57 242.62 75.57 C 242.63 81.60 242.62 87.64 242.62 93.67 C 245.54 93.67 248.45 93.67 251.37 93.67 C 251.38 98.94 251.38 104.21 251.37 109.47 C 248.45 109.48 245.54 109.48 242.62 109.48 C 242.62 113.16 242.62 116.84 242.62 120.52 C 237.27 120.51 231.92 120.52 226.57 120.51 C 226.56 116.83 226.57 113.15 226.56 109.47 C 216.55 109.48 206.54 109.47 196.54 109.48 C 196.66 105.37 196.24 101.22 196.74 97.14 Z" />
</g>
<g id="#f38724ff">
<path fill="#f38724" opacity="1.00" d=" M 3.86 56.00 C 3.74 54.55 4.15 53.15 4.30 51.73 C 27.00 51.91 49.71 51.75 72.41 51.80 C 72.48 74.71 72.36 97.61 72.47 120.51 C 49.69 120.49 26.91 120.47 4.13 120.53 C 3.73 116.69 3.90 112.84 3.88 109.00 C 3.86 91.34 3.91 73.67 3.86 56.00 Z" />
</g>
</svg>
